<?xml version="1.0" encoding="utf-8"?>
<!-- Generator: Adobe Illustrator 26.0.3, SVG Export Plug-In . SVG Version: 6.00 Build 0)  -->
<svg version="1.0" id="katman_1" xmlns="http://www.w3.org/2000/svg" xmlns:xlink="http://www.w3.org/1999/xlink" x="0px" y="0px"
	 viewBox="0 0 600 450" style="enable-background:new 0 0 600 450;" xml:space="preserve">
<style type="text/css">
	.st0{fill:#333333;}
</style>
<path class="st0" d="M316.1,131.5h-98.8c-6.7,0-12.1,5.4-12.1,12.1c0,6.7,5.4,12.1,12.1,12.1h98.8c6.7,0,12.1-5.4,12.1-12.1
	C328.2,136.9,322.8,131.5,316.1,131.5L316.1,131.5z"/>
<path class="st0" d="M316.1,213.3h-98.8c-6.7,0-12.1,5.4-12.1,12.1s5.4,12.1,12.1,12.1h98.8c6.7,0,12.1-5.4,12.1-12.1
	S322.8,213.3,316.1,213.3L316.1,213.3z"/>
<path class="st0" d="M449.6,131.5c-52.4,0-94.9,42.1-94.9,94s42.5,93.9,94.9,93.9s94.9-42.1,94.9-93.9S502.1,131.5,449.6,131.5z
	 M449.6,295.9c-39.3,0-71.2-31.6-71.2-70.5s31.9-70.5,71.2-70.5s71.2,31.6,71.2,70.5S488.9,295.9,449.6,295.9L449.6,295.9z"/>
<path class="st0" d="M165.9,295H79.2V143.5l0,0c0-6.7-5.5-12.2-12.2-12.2c-6.7,0-12.2,5.5-12.2,12.2l0,0l0,0v163.5
	c0.1,6.7,5.5,12.1,12.2,12.1h98.9c6.7,0,12.1-5.4,12.1-12.1C178,300.5,172.6,295,165.9,295z"/>
<path class="st0" d="M316.1,295h-98.8c-6.7,0-12.1,5.4-12.1,12.1c0,6.7,5.4,12.1,12.1,12.1h98.8c6.7,0,12.1-5.4,12.1-12.1
	C328.2,300.4,322.8,295,316.1,295L316.1,295z"/>
</svg>
